solid OpenSCAD_Model
  facet normal 0 0.5 -0.866025
    outer loop
      vertex 3 4.24807 0.458683
      vertex 30 6.13899 1.55041
      vertex 30 4.24807 0.458683
    endloop
  endfacet
  facet normal 0 0.5 -0.866025
    outer loop
      vertex 30 6.13899 1.55041
      vertex 3 4.24807 0.458683
      vertex 3 6.13899 1.55041
    endloop
  endfacet
  facet normal -7.30096e-10 0.309017 -0.951057
    outer loop
      vertex 30 2.17149 -0.216039
      vertex 3 2.83639 6.66134e-16
      vertex 30 4.24807 0.458683
    endloop
  endfacet
  facet normal 0 0.309017 -0.951057
    outer loop
      vertex 4.79702e-17 2.17149 -0.216039
      vertex 3 2.83639 6.66134e-16
      vertex 30 2.17149 -0.216039
    endloop
  endfacet
  facet normal 2.11177e-16 0.309017 -0.951057
    outer loop
      vertex 3 2.83639 6.66134e-16
      vertex 4.79702e-17 2.17149 -0.216039
      vertex 0 2.83639 0
    endloop
  endfacet
  facet normal 0 0.309017 -0.951057
    outer loop
      vertex 30 4.24807 0.458683
      vertex 3 2.83639 6.66134e-16
      vertex 3 4.24807 0.458683
    endloop
  endfacet
  facet normal 0 0.913545 -0.406737
    outer loop
      vertex 30 9.045 4.77786
      vertex 3 9.93309 6.77254
      vertex 30 9.93309 6.77254
    endloop
  endfacet
  facet normal 0 0.913545 -0.406737
    outer loop
      vertex 3 9.93309 6.77254
      vertex 30 9.045 4.77786
      vertex 3 9.045 4.77786
    endloop
  endfacet
  facet normal 0 0.978148 0.207912
    outer loop
      vertex 30 10.3871 11.0917
      vertex 3 9.93309 13.2275
      vertex 30 9.93309 13.2275
    endloop
  endfacet
  facet normal 0 0.978148 0.207912
    outer loop
      vertex 3 9.93309 13.2275
      vertex 30 10.3871 11.0917
      vertex 3 10.3871 11.0917
    endloop
  endfacet
  facet normal -0 0.5 0.866025
    outer loop
      vertex 3 6.13899 18.4496
      vertex 30 4.24807 19.5413
      vertex 30 6.13899 18.4496
    endloop
  endfacet
  facet normal 0 0.5 0.866025
    outer loop
      vertex 30 4.24807 19.5413
      vertex 3 6.13899 18.4496
      vertex 3 4.24807 19.5413
    endloop
  endfacet
  facet normal 0 -0.104528 -0.994522
    outer loop
      vertex 30 -2.17149 -0.216039
      vertex 9.8648e-17 0 -0.444271
      vertex 30 0 -0.444271
    endloop
  endfacet
  facet normal 0 -0.104528 -0.994522
    outer loop
      vertex 9.8648e-17 0 -0.444271
      vertex 30 -2.17149 -0.216039
      vertex 4.79702e-17 -2.17149 -0.216039
    endloop
  endfacet
  facet normal 0 0.66913 -0.743145
    outer loop
      vertex 3 6.13899 1.55041
      vertex 30 7.76161 3.01142
      vertex 30 6.13899 1.55041
    endloop
  endfacet
  facet normal 0 0.66913 -0.743145
    outer loop
      vertex 30 7.76161 3.01142
      vertex 3 6.13899 1.55041
      vertex 3 7.76161 3.01142
    endloop
  endfacet
  facet normal 0 1 -0
    outer loop
      vertex 30 10.3871 8.90828
      vertex 3 10.3871 11.0917
      vertex 30 10.3871 11.0917
    endloop
  endfacet
  facet normal 0 1 0
    outer loop
      vertex 3 10.3871 11.0917
      vertex 30 10.3871 8.90828
      vertex 3 10.3871 8.90828
    endloop
  endfacet
  facet normal 0 0.809017 -0.587785
    outer loop
      vertex 30 7.76161 3.01142
      vertex 3 9.045 4.77786
      vertex 30 9.045 4.77786
    endloop
  endfacet
  facet normal 0 0.809017 -0.587785
    outer loop
      vertex 3 9.045 4.77786
      vertex 30 7.76161 3.01142
      vertex 3 7.76161 3.01142
    endloop
  endfacet
  facet normal -6.323e-08 0.104528 0.994522
    outer loop
      vertex -4.48886e-15 2.17149 20.216
      vertex 30 0 20.4443
      vertex 30 2.17149 20.216
    endloop
  endfacet
  facet normal 0 0.104529 0.994522
    outer loop
      vertex 30 0 20.4443
      vertex -4.48886e-15 2.17149 20.216
      vertex -4.53954e-15 0 20.4443
    endloop
  endfacet
  facet normal -0 0.66913 0.743145
    outer loop
      vertex 3 7.76161 16.9886
      vertex 30 6.13899 18.4496
      vertex 30 7.76161 16.9886
    endloop
  endfacet
  facet normal 0 0.66913 0.743145
    outer loop
      vertex 30 6.13899 18.4496
      vertex 3 7.76161 16.9886
      vertex 3 6.13899 18.4496
    endloop
  endfacet
  facet normal 0 0.913545 0.406737
    outer loop
      vertex 30 9.93309 13.2275
      vertex 3 9.045 15.2221
      vertex 30 9.045 15.2221
    endloop
  endfacet
  facet normal 0 0.913545 0.406737
    outer loop
      vertex 3 9.045 15.2221
      vertex 30 9.93309 13.2275
      vertex 3 9.93309 13.2275
    endloop
  endfacet
  facet normal 0 0.809017 0.587785
    outer loop
      vertex 30 9.045 15.2221
      vertex 3 7.76161 16.9886
      vertex 30 7.76161 16.9886
    endloop
  endfacet
  facet normal 0 0.809017 0.587785
    outer loop
      vertex 3 7.76161 16.9886
      vertex 30 9.045 15.2221
      vertex 3 9.045 15.2221
    endloop
  endfacet
  facet normal 0 0.104528 -0.994522
    outer loop
      vertex 9.8648e-17 0 -0.444271
      vertex 30 2.17149 -0.216039
      vertex 30 0 -0.444271
    endloop
  endfacet
  facet normal 0 0.104528 -0.994522
    outer loop
      vertex 30 2.17149 -0.216039
      vertex 9.8648e-17 0 -0.444271
      vertex 4.79702e-17 2.17149 -0.216039
    endloop
  endfacet
  facet normal -6.14197e-11 -0.309017 -0.951057
    outer loop
      vertex 30 -4.24807 0.458683
      vertex 3 -3 0.0531616
      vertex 30 -2.17149 -0.216039
    endloop
  endfacet
  facet normal 0 -0.309017 -0.951057
    outer loop
      vertex -1.01848e-16 -4.24807 0.458683
      vertex 3 -3 0.0531616
      vertex 30 -4.24807 0.458683
    endloop
  endfacet
  facet normal -0 -0.309017 -0.951057
    outer loop
      vertex 3 -3 0.0531616
      vertex -1.01848e-16 -4.24807 0.458683
      vertex -1.18042e-17 -3 0.0531616
    endloop
  endfacet
  facet normal -3.44747e-09 -0.309017 -0.951057
    outer loop
      vertex 3 -2.83639 6.66134e-16
      vertex 30 -2.17149 -0.216039
      vertex 3 -3 0.0531616
    endloop
  endfacet
  facet normal 0 -0.309017 -0.951057
    outer loop
      vertex 3 -2.83639 6.66134e-16
      vertex 4.79702e-17 -2.17149 -0.216039
      vertex 30 -2.17149 -0.216039
    endloop
  endfacet
  facet normal 2.11738e-16 -0.309017 -0.951057
    outer loop
      vertex 4.79702e-17 -2.17149 -0.216039
      vertex 3 -2.83639 6.66134e-16
      vertex 0 -2.83639 0
    endloop
  endfacet
  facet normal 0 -0.809017 0.587785
    outer loop
      vertex -3.37999e-15 -9.045 15.2221
      vertex 30 -7.76161 16.9886
      vertex -3.77222e-15 -7.76161 16.9886
    endloop
  endfacet
  facet normal 0 -0.809017 0.587785
    outer loop
      vertex 30 -7.76161 16.9886
      vertex -3.37999e-15 -9.045 15.2221
      vertex 30 -9.045 15.2221
    endloop
  endfacet
  facet normal 0 -0.5 0.866025
    outer loop
      vertex 30 -4.24807 19.5413
      vertex -4.09663e-15 -6.13899 18.4496
      vertex 30 -6.13899 18.4496
    endloop
  endfacet
  facet normal 0 -0.5 0.866025
    outer loop
      vertex -4.09663e-15 -6.13899 18.4496
      vertex 30 -4.24807 19.5413
      vertex -4.33904e-15 -4.24807 19.5413
    endloop
  endfacet
  facet normal 0 0.978148 -0.207912
    outer loop
      vertex 30 9.93309 6.77254
      vertex 3 10.3871 8.90828
      vertex 30 10.3871 8.90828
    endloop
  endfacet
  facet normal 0 0.978148 -0.207912
    outer loop
      vertex 3 10.3871 8.90828
      vertex 30 9.93309 6.77254
      vertex 3 9.93309 6.77254
    endloop
  endfacet
  facet normal 1 0 0
    outer loop
      vertex 30 9.93309 13.2275
      vertex 30 10.3871 8.90828
      vertex 30 10.3871 11.0917
    endloop
  endfacet
  facet normal 1 0 0
    outer loop
      vertex 30 9.93309 13.2275
      vertex 30 9.93309 6.77254
      vertex 30 10.3871 8.90828
    endloop
  endfacet
  facet normal 1 0 0
    outer loop
      vertex 30 9.045 15.2221
      vertex 30 9.93309 6.77254
      vertex 30 9.93309 13.2275
    endloop
  endfacet
  facet normal 1 0 0
    outer loop
      vertex 30 9.045 15.2221
      vertex 30 9.045 4.77786
      vertex 30 9.93309 6.77254
    endloop
  endfacet
  facet normal 1 0 0
    outer loop
      vertex 30 7.76161 16.9886
      vertex 30 9.045 4.77786
      vertex 30 9.045 15.2221
    endloop
  endfacet
  facet normal 1 0 0
    outer loop
      vertex 30 7.76161 16.9886
      vertex 30 7.76161 3.01142
      vertex 30 9.045 4.77786
    endloop
  endfacet
  facet normal 1 0 0
    outer loop
      vertex 30 6.13899 18.4496
      vertex 30 7.76161 3.01142
      vertex 30 7.76161 16.9886
    endloop
  endfacet
  facet normal 1 0 0
    outer loop
      vertex 30 6.13899 18.4496
      vertex 30 6.13899 1.55041
      vertex 30 7.76161 3.01142
    endloop
  endfacet
  facet normal 1 0 0
    outer loop
      vertex 30 4.24807 19.5413
      vertex 30 6.13899 1.55041
      vertex 30 6.13899 18.4496
    endloop
  endfacet
  facet normal 1 0 0
    outer loop
      vertex 30 4.24807 19.5413
      vertex 30 4.24807 0.458683
      vertex 30 6.13899 1.55041
    endloop
  endfacet
  facet normal 1 0 0
    outer loop
      vertex 30 2.17149 20.216
      vertex 30 4.24807 0.458683
      vertex 30 4.24807 19.5413
    endloop
  endfacet
  facet normal 1 0 0
    outer loop
      vertex 30 2.17149 20.216
      vertex 30 2.17149 -0.216039
      vertex 30 4.24807 0.458683
    endloop
  endfacet
  facet normal 1 0 0
    outer loop
      vertex 30 0 20.4443
      vertex 30 2.17149 -0.216039
      vertex 30 2.17149 20.216
    endloop
  endfacet
  facet normal 1 0 0
    outer loop
      vertex 30 0 20.4443
      vertex 30 0 -0.444271
      vertex 30 2.17149 -0.216039
    endloop
  endfacet
  facet normal 1 -0 0
    outer loop
      vertex 30 -2.17149 20.216
      vertex 30 0 -0.444271
      vertex 30 0 20.4443
    endloop
  endfacet
  facet normal 1 0 0
    outer loop
      vertex 30 -2.17149 20.216
      vertex 30 -2.17149 -0.216039
      vertex 30 0 -0.444271
    endloop
  endfacet
  facet normal 1 -0 0
    outer loop
      vertex 30 -4.24807 19.5413
      vertex 30 -2.17149 -0.216039
      vertex 30 -2.17149 20.216
    endloop
  endfacet
  facet normal 1 0 0
    outer loop
      vertex 30 -4.24807 19.5413
      vertex 30 -4.24807 0.458683
      vertex 30 -2.17149 -0.216039
    endloop
  endfacet
  facet normal 1 -0 0
    outer loop
      vertex 30 -6.13899 18.4496
      vertex 30 -4.24807 0.458683
      vertex 30 -4.24807 19.5413
    endloop
  endfacet
  facet normal 1 0 0
    outer loop
      vertex 30 -6.13899 18.4496
      vertex 30 -6.13899 1.55041
      vertex 30 -4.24807 0.458683
    endloop
  endfacet
  facet normal 1 -0 0
    outer loop
      vertex 30 -7.76161 16.9886
      vertex 30 -6.13899 1.55041
      vertex 30 -6.13899 18.4496
    endloop
  endfacet
  facet normal 1 0 0
    outer loop
      vertex 30 -7.76161 16.9886
      vertex 30 -7.76161 3.01142
      vertex 30 -6.13899 1.55041
    endloop
  endfacet
  facet normal 1 -0 0
    outer loop
      vertex 30 -9.045 15.2221
      vertex 30 -7.76161 3.01142
      vertex 30 -7.76161 16.9886
    endloop
  endfacet
  facet normal 1 0 0
    outer loop
      vertex 30 -9.045 15.2221
      vertex 30 -9.045 4.77786
      vertex 30 -7.76161 3.01142
    endloop
  endfacet
  facet normal 1 -0 0
    outer loop
      vertex 30 -9.93309 13.2275
      vertex 30 -9.045 4.77786
      vertex 30 -9.045 15.2221
    endloop
  endfacet
  facet normal 1 0 0
    outer loop
      vertex 30 -9.93309 13.2275
      vertex 30 -9.93309 6.77254
      vertex 30 -9.045 4.77786
    endloop
  endfacet
  facet normal 1 -0 0
    outer loop
      vertex 30 -10.3871 11.0917
      vertex 30 -9.93309 6.77254
      vertex 30 -9.93309 13.2275
    endloop
  endfacet
  facet normal 1 0 0
    outer loop
      vertex 30 -9.93309 6.77254
      vertex 30 -10.3871 11.0917
      vertex 30 -10.3871 8.90828
    endloop
  endfacet
  facet normal 0 0.309017 0.951057
    outer loop
      vertex 3 2.83639 20
      vertex 30 4.24807 19.5413
      vertex 3 4.24807 19.5413
    endloop
  endfacet
  facet normal -2.35667e-08 0.309017 0.951056
    outer loop
      vertex 30 4.24807 19.5413
      vertex 3 2.83639 20
      vertex 30 2.17149 20.216
    endloop
  endfacet
  facet normal 0 0.309016 0.951057
    outer loop
      vertex -4.48886e-15 2.17149 20.216
      vertex 3 2.83639 20
      vertex -4.44089e-15 2.83639 20
    endloop
  endfacet
  facet normal -6.04666e-08 0.309016 0.951057
    outer loop
      vertex 3 2.83639 20
      vertex -4.48886e-15 2.17149 20.216
      vertex 30 2.17149 20.216
    endloop
  endfacet
  facet normal -6.323e-08 -0.104528 0.994522
    outer loop
      vertex 30 0 20.4443
      vertex -4.48886e-15 -2.17149 20.216
      vertex 30 -2.17149 20.216
    endloop
  endfacet
  facet normal 0 -0.104529 0.994522
    outer loop
      vertex -4.48886e-15 -2.17149 20.216
      vertex 30 0 20.4443
      vertex -4.53954e-15 0 20.4443
    endloop
  endfacet
  facet normal 0 -0.66913 0.743145
    outer loop
      vertex 30 -6.13899 18.4496
      vertex -3.77222e-15 -7.76161 16.9886
      vertex 30 -7.76161 16.9886
    endloop
  endfacet
  facet normal 0 -0.66913 0.743145
    outer loop
      vertex -3.77222e-15 -7.76161 16.9886
      vertex 30 -6.13899 18.4496
      vertex -4.09663e-15 -6.13899 18.4496
    endloop
  endfacet
  facet normal 0 -0.978148 -0.207912
    outer loop
      vertex -1.50381e-15 -9.93309 6.77254
      vertex 30 -10.3871 8.90828
      vertex -1.97803e-15 -10.3871 8.90828
    endloop
  endfacet
  facet normal 0 -0.978148 -0.207912
    outer loop
      vertex 30 -10.3871 8.90828
      vertex -1.50381e-15 -9.93309 6.77254
      vertex 30 -9.93309 6.77254
    endloop
  endfacet
  facet normal 0 -0.913545 -0.406737
    outer loop
      vertex -1.0609e-15 -9.045 4.77786
      vertex 30 -9.93309 6.77254
      vertex -1.50381e-15 -9.93309 6.77254
    endloop
  endfacet
  facet normal 0 -0.913545 -0.406737
    outer loop
      vertex 30 -9.93309 6.77254
      vertex -1.0609e-15 -9.045 4.77786
      vertex 30 -9.045 4.77786
    endloop
  endfacet
  facet normal 0 -0.66913 -0.743145
    outer loop
      vertex 30 -7.76161 3.01142
      vertex -3.4426e-16 -6.13899 1.55041
      vertex 30 -6.13899 1.55041
    endloop
  endfacet
  facet normal 0 -0.66913 -0.743145
    outer loop
      vertex -3.4426e-16 -6.13899 1.55041
      vertex 30 -7.76161 3.01142
      vertex -6.68669e-16 -7.76161 3.01142
    endloop
  endfacet
  facet normal 0 -0.809017 -0.587785
    outer loop
      vertex -6.68669e-16 -7.76161 3.01142
      vertex 30 -9.045 4.77786
      vertex -1.0609e-15 -9.045 4.77786
    endloop
  endfacet
  facet normal 0 -0.809017 -0.587785
    outer loop
      vertex 30 -9.045 4.77786
      vertex -6.68669e-16 -7.76161 3.01142
      vertex 30 -7.76161 3.01142
    endloop
  endfacet
  facet normal 0 -0.5 -0.866025
    outer loop
      vertex 30 -6.13899 1.55041
      vertex -1.01848e-16 -4.24807 0.458683
      vertex 30 -4.24807 0.458683
    endloop
  endfacet
  facet normal 0 -0.5 -0.866025
    outer loop
      vertex -1.01848e-16 -4.24807 0.458683
      vertex 30 -6.13899 1.55041
      vertex -3.4426e-16 -6.13899 1.55041
    endloop
  endfacet
  facet normal 0 -1 0
    outer loop
      vertex -1.97803e-15 -10.3871 8.90828
      vertex 30 -10.3871 11.0917
      vertex -2.46286e-15 -10.3871 11.0917
    endloop
  endfacet
  facet normal 0 -1 -0
    outer loop
      vertex 30 -10.3871 11.0917
      vertex -1.97803e-15 -10.3871 8.90828
      vertex 30 -10.3871 8.90828
    endloop
  endfacet
  facet normal 0 -0.978148 0.207912
    outer loop
      vertex -2.46286e-15 -10.3871 11.0917
      vertex 30 -9.93309 13.2275
      vertex -2.93709e-15 -9.93309 13.2275
    endloop
  endfacet
  facet normal 0 -0.978148 0.207912
    outer loop
      vertex 30 -9.93309 13.2275
      vertex -2.46286e-15 -10.3871 11.0917
      vertex 30 -10.3871 11.0917
    endloop
  endfacet
  facet normal -1 0 -2.22045e-16
    outer loop
      vertex -3.4426e-16 -6.13899 1.55041
      vertex -1.18042e-17 -3 0.0531616
      vertex -1.01848e-16 -4.24807 0.458683
    endloop
  endfacet
  facet normal -1 0 -2.22045e-16
    outer loop
      vertex -6.68669e-16 -7.76161 3.01142
      vertex -1.18042e-17 -3 0.0531616
      vertex -3.4426e-16 -6.13899 1.55041
    endloop
  endfacet
  facet normal -1 0 -2.22045e-16
    outer loop
      vertex -1.18042e-17 -3 0.0531616
      vertex -6.68669e-16 -7.76161 3.01142
      vertex -4.42909e-15 -3 19.9468
    endloop
  endfacet
  facet normal -1 0 -2.22045e-16
    outer loop
      vertex -4.42909e-15 -3 19.9468
      vertex -4.09663e-15 -6.13899 18.4496
      vertex -4.33904e-15 -4.24807 19.5413
    endloop
  endfacet
  facet normal -1 0 -2.22045e-16
    outer loop
      vertex -3.77222e-15 -7.76161 16.9886
      vertex -4.42909e-15 -3 19.9468
      vertex -6.68669e-16 -7.76161 3.01142
    endloop
  endfacet
  facet normal -1 0 -2.22045e-16
    outer loop
      vertex -4.42909e-15 -3 19.9468
      vertex -3.77222e-15 -7.76161 16.9886
      vertex -4.09663e-15 -6.13899 18.4496
    endloop
  endfacet
  facet normal -1 0 -2.22045e-16
    outer loop
      vertex -1.0609e-15 -9.045 4.77786
      vertex -3.77222e-15 -7.76161 16.9886
      vertex -6.68669e-16 -7.76161 3.01142
    endloop
  endfacet
  facet normal -1 0 -2.22045e-16
    outer loop
      vertex -1.0609e-15 -9.045 4.77786
      vertex -3.37999e-15 -9.045 15.2221
      vertex -3.77222e-15 -7.76161 16.9886
    endloop
  endfacet
  facet normal -1 0 -2.22045e-16
    outer loop
      vertex -1.50381e-15 -9.93309 6.77254
      vertex -3.37999e-15 -9.045 15.2221
      vertex -1.0609e-15 -9.045 4.77786
    endloop
  endfacet
  facet normal -1 0 -2.22045e-16
    outer loop
      vertex -1.50381e-15 -9.93309 6.77254
      vertex -2.93709e-15 -9.93309 13.2275
      vertex -3.37999e-15 -9.045 15.2221
    endloop
  endfacet
  facet normal -1 0 -2.22045e-16
    outer loop
      vertex -1.97803e-15 -10.3871 8.90828
      vertex -2.93709e-15 -9.93309 13.2275
      vertex -1.50381e-15 -9.93309 6.77254
    endloop
  endfacet
  facet normal -1 0 -2.22045e-16
    outer loop
      vertex -2.93709e-15 -9.93309 13.2275
      vertex -1.97803e-15 -10.3871 8.90828
      vertex -2.46286e-15 -10.3871 11.0917
    endloop
  endfacet
  facet normal -1 0 -2.22045e-16
    outer loop
      vertex 0 2.83639 0
      vertex -4.44089e-15 80 20
      vertex 0 80 0
    endloop
  endfacet
  facet normal -1 0 -2.22045e-16
    outer loop
      vertex 0 2.83639 0
      vertex -4.44089e-15 2.83639 20
      vertex -4.44089e-15 80 20
    endloop
  endfacet
  facet normal -1 0 -2.22045e-16
    outer loop
      vertex 9.8648e-17 0 -0.444271
      vertex 0 2.83639 0
      vertex 4.79702e-17 2.17149 -0.216039
    endloop
  endfacet
  facet normal -1 0 -2.22045e-16
    outer loop
      vertex 0 2.83639 0
      vertex -1.18042e-17 -3 0.0531616
      vertex -4.44089e-15 2.83639 20
    endloop
  endfacet
  facet normal -1 0 -2.22045e-16
    outer loop
      vertex 0 2.83639 0
      vertex 9.8648e-17 0 -0.444271
      vertex -1.18042e-17 -3 0.0531616
    endloop
  endfacet
  facet normal -1 0 -2.22045e-16
    outer loop
      vertex -4.42909e-15 -3 19.9468
      vertex -4.44089e-15 2.83639 20
      vertex -1.18042e-17 -3 0.0531616
    endloop
  endfacet
  facet normal -1 0 -2.22045e-16
    outer loop
      vertex 0 -2.83639 0
      vertex 9.8648e-17 0 -0.444271
      vertex 4.79702e-17 -2.17149 -0.216039
    endloop
  endfacet
  facet normal -1 0 -2.22045e-16
    outer loop
      vertex -1.18042e-17 -3 0.0531616
      vertex 9.8648e-17 0 -0.444271
      vertex 0 -2.83639 0
    endloop
  endfacet
  facet normal -1 0 -2.22045e-16
    outer loop
      vertex -4.53954e-15 0 20.4443
      vertex -4.44089e-15 2.83639 20
      vertex -4.42909e-15 -3 19.9468
    endloop
  endfacet
  facet normal -1 0 -2.22045e-16
    outer loop
      vertex -4.53954e-15 0 20.4443
      vertex -4.44089e-15 -2.83639 20
      vertex -4.48886e-15 -2.17149 20.216
    endloop
  endfacet
  facet normal -1 0 -2.22045e-16
    outer loop
      vertex -1.18042e-17 -3 0.0531616
      vertex 0 -2.83639 0
      vertex 0 -3 0
    endloop
  endfacet
  facet normal -1 0 -2.22045e-16
    outer loop
      vertex -4.44089e-15 2.83639 20
      vertex -4.53954e-15 0 20.4443
      vertex -4.48886e-15 2.17149 20.216
    endloop
  endfacet
  facet normal -1 0 -2.22045e-16
    outer loop
      vertex -4.53954e-15 0 20.4443
      vertex -4.42909e-15 -3 19.9468
      vertex -4.44089e-15 -2.83639 20
    endloop
  endfacet
  facet normal -1 -0 -2.22045e-16
    outer loop
      vertex -4.44089e-15 -2.83639 20
      vertex -4.42909e-15 -3 19.9468
      vertex -4.44089e-15 -3 20
    endloop
  endfacet
  facet normal -3.17074e-08 -0.309017 0.951057
    outer loop
      vertex 3 -3 19.9468
      vertex 30 -2.17149 20.216
      vertex 3 -2.83639 20
    endloop
  endfacet
  facet normal -6.04666e-08 -0.309016 0.951057
    outer loop
      vertex -4.48886e-15 -2.17149 20.216
      vertex 3 -2.83639 20
      vertex 30 -2.17149 20.216
    endloop
  endfacet
  facet normal 0 -0.309016 0.951057
    outer loop
      vertex 3 -2.83639 20
      vertex -4.48886e-15 -2.17149 20.216
      vertex -4.44089e-15 -2.83639 20
    endloop
  endfacet
  facet normal -2.15634e-08 -0.309017 0.951056
    outer loop
      vertex 30 -2.17149 20.216
      vertex 3 -3 19.9468
      vertex 30 -4.24807 19.5413
    endloop
  endfacet
  facet normal 0 -0.309017 0.951057
    outer loop
      vertex 3 -3 19.9468
      vertex -4.33904e-15 -4.24807 19.5413
      vertex 30 -4.24807 19.5413
    endloop
  endfacet
  facet normal 0 -0.309017 0.951057
    outer loop
      vertex -4.33904e-15 -4.24807 19.5413
      vertex 3 -3 19.9468
      vertex -4.42909e-15 -3 19.9468
    endloop
  endfacet
  facet normal 0 -0.913545 0.406737
    outer loop
      vertex -2.93709e-15 -9.93309 13.2275
      vertex 30 -9.045 15.2221
      vertex -3.37999e-15 -9.045 15.2221
    endloop
  endfacet
  facet normal 0 -0.913545 0.406737
    outer loop
      vertex 30 -9.045 15.2221
      vertex -2.93709e-15 -9.93309 13.2275
      vertex 30 -9.93309 13.2275
    endloop
  endfacet
  facet normal 0 0 1
    outer loop
      vertex 3 83 20
      vertex -4.44089e-15 80 20
      vertex 3 2.83639 20
    endloop
  endfacet
  facet normal 0 0 1
    outer loop
      vertex 3 83 20
      vertex -63 80 20
      vertex -4.44089e-15 80 20
    endloop
  endfacet
  facet normal -0 0 1
    outer loop
      vertex -66 83 20
      vertex -63 80 20
      vertex 3 83 20
    endloop
  endfacet
  facet normal 0 0 1
    outer loop
      vertex -66 62.5 20
      vertex -63 80 20
      vertex -66 83 20
    endloop
  endfacet
  facet normal 0 0 1
    outer loop
      vertex -63 80 20
      vertex -66 62.5 20
      vertex -63 62.5 20
    endloop
  endfacet
  facet normal 0 0 1
    outer loop
      vertex 3 2.83639 20
      vertex -4.44089e-15 80 20
      vertex -4.44089e-15 2.83639 20
    endloop
  endfacet
  facet normal -0 0 1
    outer loop
      vertex -4.44089e-15 -2.83639 20
      vertex 3 -3 20
      vertex 3 -2.83639 20
    endloop
  endfacet
  facet normal 0 0 1
    outer loop
      vertex 3 -3 20
      vertex -4.44089e-15 -2.83639 20
      vertex -4.44089e-15 -3 20
    endloop
  endfacet
  facet normal 1 0 0
    outer loop
      vertex 3 -2.83639 20
      vertex 3 -3 20
      vertex 3 -3 19.9468
    endloop
  endfacet
  facet normal 1 0 0
    outer loop
      vertex 3 -2.83639 6.66134e-16
      vertex 3 -3 0.0531616
      vertex 3 -3 6.66134e-16
    endloop
  endfacet
  facet normal 1 0 0
    outer loop
      vertex 3 83 20
      vertex 3 10.3871 11.0917
      vertex 3 83 6.66134e-16
    endloop
  endfacet
  facet normal 1 0 0
    outer loop
      vertex 3 83 20
      vertex 3 9.93309 13.2275
      vertex 3 10.3871 11.0917
    endloop
  endfacet
  facet normal 1 0 0
    outer loop
      vertex 3 83 20
      vertex 3 9.045 15.2221
      vertex 3 9.93309 13.2275
    endloop
  endfacet
  facet normal 1 0 0
    outer loop
      vertex 3 83 20
      vertex 3 7.76161 16.9886
      vertex 3 9.045 15.2221
    endloop
  endfacet
  facet normal 1 0 0
    outer loop
      vertex 3 83 20
      vertex 3 6.13899 18.4496
      vertex 3 7.76161 16.9886
    endloop
  endfacet
  facet normal 1 0 0
    outer loop
      vertex 3 83 20
      vertex 3 4.24807 19.5413
      vertex 3 6.13899 18.4496
    endloop
  endfacet
  facet normal 1 0 -0
    outer loop
      vertex 3 4.24807 19.5413
      vertex 3 83 20
      vertex 3 2.83639 20
    endloop
  endfacet
  facet normal 1 -0 0
    outer loop
      vertex 3 10.3871 8.90828
      vertex 3 83 6.66134e-16
      vertex 3 10.3871 11.0917
    endloop
  endfacet
  facet normal 1 -0 0
    outer loop
      vertex 3 9.93309 6.77254
      vertex 3 83 6.66134e-16
      vertex 3 10.3871 8.90828
    endloop
  endfacet
  facet normal 1 -0 0
    outer loop
      vertex 3 9.045 4.77786
      vertex 3 83 6.66134e-16
      vertex 3 9.93309 6.77254
    endloop
  endfacet
  facet normal 1 -0 0
    outer loop
      vertex 3 7.76161 3.01142
      vertex 3 83 6.66134e-16
      vertex 3 9.045 4.77786
    endloop
  endfacet
  facet normal 1 -0 0
    outer loop
      vertex 3 6.13899 1.55041
      vertex 3 83 6.66134e-16
      vertex 3 7.76161 3.01142
    endloop
  endfacet
  facet normal 1 -0 0
    outer loop
      vertex 3 4.24807 0.458683
      vertex 3 83 6.66134e-16
      vertex 3 6.13899 1.55041
    endloop
  endfacet
  facet normal 1 0 0
    outer loop
      vertex 3 83 6.66134e-16
      vertex 3 4.24807 0.458683
      vertex 3 2.83639 6.66134e-16
    endloop
  endfacet
  facet normal 2.22045e-16 0 -1
    outer loop
      vertex -63 62.5 -1.39888e-14
      vertex -66 62.5 -1.46549e-14
      vertex -63 80 -1.39888e-14
    endloop
  endfacet
  facet normal 2.22045e-16 0 -1
    outer loop
      vertex 0 80 0
      vertex 3 2.83639 6.66134e-16
      vertex 0 2.83639 0
    endloop
  endfacet
  facet normal 2.22045e-16 0 -1
    outer loop
      vertex 3 2.83639 6.66134e-16
      vertex 0 80 0
      vertex 3 83 6.66134e-16
    endloop
  endfacet
  facet normal 2.22045e-16 0 -1
    outer loop
      vertex -63 80 -1.39888e-14
      vertex 3 83 6.66134e-16
      vertex 0 80 0
    endloop
  endfacet
  facet normal 2.22045e-16 0 -1
    outer loop
      vertex -63 80 -1.39888e-14
      vertex -66 83 -1.46549e-14
      vertex 3 83 6.66134e-16
    endloop
  endfacet
  facet normal 2.22045e-16 0 -1
    outer loop
      vertex -66 83 -1.46549e-14
      vertex -63 80 -1.39888e-14
      vertex -66 62.5 -1.46549e-14
    endloop
  endfacet
  facet normal 2.22045e-16 0 -1
    outer loop
      vertex 0 -3 0
      vertex 3 -2.83639 6.66134e-16
      vertex 3 -3 6.66134e-16
    endloop
  endfacet
  facet normal 2.22045e-16 0 -1
    outer loop
      vertex 3 -2.83639 6.66134e-16
      vertex 0 -3 0
      vertex 0 -2.83639 0
    endloop
  endfacet
  facet normal 0 -1 0
    outer loop
      vertex -4.42909e-15 -3 19.9468
      vertex 3 -3 20
      vertex -4.44089e-15 -3 20
    endloop
  endfacet
  facet normal 0 -1 -0
    outer loop
      vertex 3 -3 20
      vertex -4.42909e-15 -3 19.9468
      vertex 3 -3 19.9468
    endloop
  endfacet
  facet normal 0 -1 0
    outer loop
      vertex -1.18042e-17 -3 0.0531616
      vertex 3 -3 6.66134e-16
      vertex 3 -3 0.0531616
    endloop
  endfacet
  facet normal -0 -1 0
    outer loop
      vertex 3 -3 6.66134e-16
      vertex -1.18042e-17 -3 0.0531616
      vertex 0 -3 0
    endloop
  endfacet
  facet normal 0 1 -0
    outer loop
      vertex 3 83 6.66134e-16
      vertex -66 83 20
      vertex 3 83 20
    endloop
  endfacet
  facet normal 0 1 0
    outer loop
      vertex -66 83 20
      vertex 3 83 6.66134e-16
      vertex -66 83 -1.46549e-14
    endloop
  endfacet
  facet normal -1 0 0
    outer loop
      vertex -66 62.5 -1.46549e-14
      vertex -66 83 20
      vertex -66 83 -1.46549e-14
    endloop
  endfacet
  facet normal -1 -0 0
    outer loop
      vertex -66 83 20
      vertex -66 62.5 -1.46549e-14
      vertex -66 62.5 20
    endloop
  endfacet
  facet normal 0 -1 0
    outer loop
      vertex -63 80 20
      vertex 0 80 0
      vertex -4.44089e-15 80 20
    endloop
  endfacet
  facet normal -0 -1 0
    outer loop
      vertex 0 80 0
      vertex -63 80 20
      vertex -63 80 -1.39888e-14
    endloop
  endfacet
  facet normal 1 -0 0
    outer loop
      vertex -63 62.5 20
      vertex -63 80 -1.39888e-14
      vertex -63 80 20
    endloop
  endfacet
  facet normal 1 0 0
    outer loop
      vertex -63 80 -1.39888e-14
      vertex -63 62.5 20
      vertex -63 62.5 -1.39888e-14
    endloop
  endfacet
  facet normal 0 -1 0
    outer loop
      vertex -66 62.5 20
      vertex -63 62.5 -1.39888e-14
      vertex -63 62.5 20
    endloop
  endfacet
  facet normal -0 -1 0
    outer loop
      vertex -63 62.5 -1.39888e-14
      vertex -66 62.5 20
      vertex -66 62.5 -1.46549e-14
    endloop
  endfacet
endsolid OpenSCAD_Model
